<svg height="512" viewBox="0 0 512 512" width="512" xmlns="http://www.w3.org/2000/svg">
  <path
    d="m279.863 16.69 32.407 29.308 42.719-9.178c17.861-3.837 35.725 6.477 41.332 23.863l13.411 41.585 41.585 13.411c17.387 5.607 27.701 23.471 23.863 41.332l-9.178 42.719 29.308 32.407c12.254 13.549 12.254 34.177 0 47.726l-29.308 32.407 9.178 42.719c3.837 17.861-6.477 35.725-23.863 41.332l-41.585 13.411-13.411 41.585c-5.607 17.387-23.471 27.701-41.332 23.863l-42.719-9.178-32.407 29.308c-13.549 12.254-34.177 12.254-47.726 0l-32.407-29.308-42.719 9.178c-17.861 3.837-35.725-6.477-41.332-23.863l-13.411-41.585-41.585-13.411c-17.387-5.607-27.701-23.471-23.863-41.332l9.178-42.719-29.308-32.407c-12.254-13.549-12.254-34.177 0-47.726l29.308-32.407-9.178-42.719c-3.837-17.861 6.477-35.725 23.863-41.332l41.585-13.411 13.411-41.585c5.607-17.387 23.471-27.701 41.332-23.863l42.719 9.178 32.407-29.308c13.549-12.253 34.177-12.253 47.726 0z"
    fill="#ffb357"
  />
  <path
    d="m256 443.985c-103.655 0-187.985-84.33-187.985-187.985s84.33-187.985 187.985-187.985 187.985 84.33 187.985 187.985-84.33 187.985-187.985 187.985z"
    fill="#fce3a0"
  />
  <ellipse
    cx="116.831"
    cy="248.31"
    fill="#ff8e9e"
    rx="29.212"
    ry="23.263"
    transform="matrix(1 .003 -.003 1 .779 -.365)"
  />
  <ellipse
    cx="275.169"
    cy="248.806"
    fill="#ff8e9e"
    rx="29.212"
    ry="23.263"
    transform="matrix(-1 -.003 .003 -1 549.558 498.473)"
  />
  <path
    d="m320.262 79.412c-27.451-9.991-55.701-13.193-82.923-10.469-3.92.392-7.284 2.958-8.631 6.66-1.747 4.8.309 10.194 4.86 12.513 67.097 34.206 99.661 113.765 73.23 186.383-26.527 72.883-102.772 112.547-175.902 95.703-4.977-1.147-10.019 1.662-11.766 6.462l-.002.004c-1.347 3.702-.42 7.83 2.331 10.65 19.102 19.583 42.801 35.29 70.252 45.282 97.169 35.367 205.197-14.312 240.869-112.319 35.532-97.621-14.731-205.351-112.318-240.869z"
    fill="#82888b"
  />
  <path
    d="m277.989 95.336c-15.624-5.687-31.555-8.755-47.319-9.451.8.895 1.772 1.657 2.898 2.231 67.097 34.206 99.661 113.765 73.23 186.383-26.527 72.883-102.772 112.547-175.902 95.703-1.232-.284-2.469-.324-3.658-.153 12.524 9.602 26.701 17.491 42.327 23.179 81.956 29.83 173.072-12.071 203.159-94.734 29.968-82.337-12.427-173.2-94.735-203.158z"
    fill="#676f72"
  />
  <path
    d="m256 60.515c-107.791 0-195.485 87.694-195.485 195.485s87.694 195.485 195.485 195.485 195.485-87.694 195.485-195.485-87.694-195.485-195.485-195.485zm0 375.97c-51.258 0-97.593-21.48-130.48-55.91.279-.456.474-.836.658-1.345.455-1.246 1.764-2.012 3.035-1.719 77.07 17.752 156.867-24.159 184.633-100.446 22.25-61.128 4.434-126.309-38.333-168.005-2.966-2.892-7.714-2.831-10.605.134-2.892 2.966-2.831 7.714.135 10.606 38.912 37.938 54.779 96.997 34.708 152.135-24.48 67.259-95.963 107.36-167.172 90.959-6.549-1.506-13.194.887-17.391 5.868-24.808-30.915-39.673-70.132-39.673-112.762 0-87.404 62.455-160.488 145.079-176.989-.052 6.648 3.6 12.745 9.567 15.787 4.314 2.2 8.563 4.645 12.63 7.268 3.474 2.243 8.119 1.249 10.368-2.237 2.245-3.48 1.244-8.123-2.237-10.368-13.204-8.519-16.425-7.832-15.167-11.291.188-.515.311-1.036.383-1.558 6.525-.718 13.15-1.098 19.863-1.098 99.52 0 180.485 80.965 180.485 180.485s-80.966 180.486-180.486 180.486z"
  />
  <path
    d="m512 256c0-10.699-3.952-20.96-11.128-28.895l-26.731-29.557c9.167-42.662 9.338-42.012 9.338-48.034 0-18.749-12-35.214-29.86-40.974l-37.929-12.23-12.231-37.929c-6.838-21.202-28.45-33.532-50.045-28.893l-38.964 8.371-29.556-26.73c-7.933-7.177-18.195-11.129-28.895-11.129-10.44.001-20.765 3.776-28.893 11.128l-29.556 26.731-38.965-8.372c-21.593-4.634-43.204 7.683-50.044 28.894l-12.231 37.929-37.928 12.231c-21.194 6.835-33.532 28.433-28.895 50.046l8.372 38.962-26.731 29.556c-7.176 7.935-11.128 18.196-11.128 28.895s3.952 20.96 11.128 28.895l26.731 29.557c-9.167 42.662-9.338 42.012-9.338 48.034 0 18.749 12 35.214 29.86 40.974l37.929 12.23 12.231 37.929c6.838 21.202 28.45 33.532 50.045 28.893l38.964-8.371 29.556 26.73c7.933 7.177 18.195 11.129 28.894 11.129 10.698 0 20.96-3.952 28.894-11.128l29.557-26.731 38.965 8.372c21.593 4.634 43.204-7.683 50.044-28.894l1.914-5.937c1.271-3.942-.894-8.168-4.836-9.439-3.945-1.271-8.168.895-9.44 4.837l-1.913 5.936c-4.457 13.82-18.531 21.857-32.619 18.833l-42.72-9.178c-2.357-.506-4.817.152-6.605 1.77l-32.407 29.308c-5.173 4.675-11.861 7.251-18.834 7.251-6.974 0-13.662-2.576-18.833-7.253l-32.406-29.308c-1.789-1.618-4.249-2.276-6.605-1.77l-42.72 9.178c-14.077 3.026-28.16-5.006-32.619-18.832l-13.41-41.585c-.74-2.296-2.54-4.096-4.836-4.836l-41.585-13.411c-11.642-3.754-19.464-14.483-19.464-26.698 0-4.043-.207-2.014 9.811-48.64.507-2.359-.152-4.817-1.771-6.606l-29.309-32.406c-4.677-5.172-7.253-11.86-7.253-18.833s2.576-13.661 7.253-18.832l29.309-32.406c1.618-1.789 2.277-4.248 1.771-6.606l-9.179-42.718c-3.03-14.114 5.035-28.169 18.832-32.619l41.585-13.411c2.296-.741 4.096-2.541 4.836-4.836l13.41-41.584c4.457-13.82 18.531-21.857 32.619-18.833l42.72 9.178c2.355.506 4.817-.152 6.605-1.77l32.407-29.308c10.785-9.755 27.068-9.586 37.665 0l32.406 29.308c1.789 1.618 4.249 2.277 6.605 1.77l42.72-9.178c14.077-3.026 28.16 5.006 32.619 18.832l13.41 41.585c.74 2.296 2.54 4.096 4.836 4.836l41.585 13.411c11.642 3.754 19.464 14.483 19.464 26.698 0 4.043.207 2.014-9.811 48.64-.507 2.359.152 4.817 1.771 6.606l29.309 32.406c4.677 5.17 7.253 11.858 7.253 18.831s-2.576 13.661-7.253 18.832l-29.309 32.406c-1.618 1.789-2.277 4.248-1.771 6.606l9.179 42.718c3.03 14.114-5.035 28.169-18.832 32.619l-41.585 13.411c-2.296.741-4.096 2.541-4.837 4.837l-2.288 7.097c-1.271 3.942.895 8.168 4.837 9.439 3.946 1.27 8.168-.894 9.439-4.837l1.109-3.439 37.928-12.231c21.194-6.835 33.532-28.433 28.895-50.046l-8.372-38.962 26.731-29.556c7.177-7.934 11.129-18.195 11.129-28.894z"
  />
  <path
    d="m131.5 206c-4.142 0-7.5 3.358-7.5 7.5v10c0 4.142 3.358 7.5 7.5 7.5s7.5-3.358 7.5-7.5v-10c0-4.142-3.358-7.5-7.5-7.5z"
  />
  <path
    d="m252 213.5v10c0 4.142 3.358 7.5 7.5 7.5s7.5-3.358 7.5-7.5v-10c0-4.142-3.358-7.5-7.5-7.5s-7.5 3.358-7.5 7.5z"
  />
  <path
    d="m215.235 234.734c-3.737-1.789-8.215-.206-10.001 3.531-1.666 3.484-5.291 5.735-9.234 5.735s-7.568-2.251-9.234-5.735c-1.787-3.737-6.266-5.317-10.001-3.531-3.737 1.787-5.318 6.265-3.531 10.001 4.143 8.666 13.079 14.265 22.766 14.265s18.623-5.599 22.766-14.265c1.787-3.736.206-8.214-3.531-10.001z"
  />
  <path
    d="m342 260.391c-4.143.001-7.499 3.358-7.5 7.501v10c0 4.142 3.358 7.499 7.5 7.5 4.145-.002 7.499-3.359 7.5-7.501v-10c0-4.143-3.358-7.5-7.5-7.5z"
  />
  <path
    d="m410 260.391c-4.143.001-7.5 3.358-7.5 7.5v10c0 4.143 3.358 7.5 7.5 7.501 4.149-.002 7.5-3.364 7.5-7.5v-10c0-4.143-3.357-7.501-7.5-7.501z"
  />
  <path
    d="m391.737 268.89c-3.736-1.791-8.215-.207-10.002 3.529-.913 1.908-3.016 3.19-5.234 3.19 0 0 0 0-.001 0-2.218 0-4.321-1.281-5.233-3.188-1.788-3.737-6.266-5.317-10.001-3.531-10.435 4.99.047 21.72 15.233 21.72h.004c7.994 0 15.359-4.6 18.764-11.718 1.787-3.737.207-8.215-3.53-10.002z"
  />
</svg>
