<svg height="512" viewBox="0 0 512 512" width="512" xmlns="http://www.w3.org/2000/svg">
  <path
    d="m256 7.5c-66.377 0-128.781 25.849-175.716 72.784-46.935 46.936-72.784 109.34-72.784 175.716s25.849 128.78 72.784 175.716c46.935 46.935 109.339 72.784 175.716 72.784 17.487 0 34.693-1.812 51.418-5.313v-486.374c-16.725-3.501-33.931-5.313-51.418-5.313z"
    fill="#d4d4d5"
  />
  <path
    d="m504.5 256c0-66.376-25.849-128.78-72.784-175.716-34.57-34.57-77.538-57.683-124.298-67.471-46.761 9.788-89.728 32.901-124.298 67.471-46.936 46.936-72.784 109.34-72.784 175.716s25.849 128.78 72.784 175.716c34.57 34.57 77.538 57.683 124.298 67.471 46.761-9.788 89.728-32.901 124.298-67.471 46.935-46.936 72.784-109.34 72.784-175.716z"
    fill="#efedee"
  />
  <g fill="#d4d4d5">
    <circle cx="403.836" cy="304" r="45" />
    <circle cx="183.835" cy="124" r="30" />
    <circle cx="312" cy="421" r="15" />
  </g>
  <circle cx="67.5" cy="256" fill="#b9bbbc" r="15" />
  <circle cx="373.836" cy="109" fill="#d4d4d5" r="15" />
  <path
    d="m183.462 432.053-61.848-101.686c-14.638 10.941-24.114 28.408-24.114 48.089 0 33.137 26.863 60 60 60 9.437 0 18.019-2.521 25.962-6.403-.227-.226.227.227 0 0z"
    fill="#b9bbbc"
  />
  <path
    d="m217.501 378.456c0-33.137-26.863-60-60-60-13.456 0-25.878 4.43-35.886 11.911 11.814 37.841 33.016 72.854 61.848 101.686.227.227-.228-.226 0 0 19.95-9.748 34.038-29.896 34.038-53.597z"
    fill="#d4d4d5"
  />
  <ellipse
    cx="176.831"
    cy="228.263"
    fill="#ff8e9e"
    rx="29.212"
    ry="23.263"
    transform="matrix(1 .003 -.003 1 .716 -.553)"
  />
  <ellipse
    cx="335.169"
    cy="228.759"
    fill="#ff8e9e"
    rx="29.212"
    ry="23.263"
    transform="matrix(-1 -.003 .003 -1 669.62 458.567)"
  />
  <path
    d="m47.916 47.916c4.627-1.191 8.983-3.058 12.956-5.49 4.837-2.96 4.837-9.892 0-12.852-3.973-2.431-8.329-4.298-12.956-5.489-1.191-4.627-3.058-8.983-5.49-12.956-2.96-4.837-9.892-4.837-12.852 0-2.432 3.973-4.298 8.329-5.49 12.957-4.627 1.191-8.983 3.058-12.956 5.489-4.837 2.96-4.837 9.892 0 12.852 3.973 2.432 8.329 4.299 12.956 5.49 1.191 4.627 3.058 8.983 5.49 12.956 2.96 4.837 9.892 4.837 12.852 0 2.432-3.974 4.299-8.33 5.49-12.957z"
    fill="#ffce71"
  />
  <path
    d="m447.965 448.115c6.494-1.672 12.608-4.292 18.184-7.705 6.789-4.155 6.789-13.883 0-18.038-5.576-3.413-11.69-6.033-18.184-7.704-1.672-6.494-4.292-12.608-7.705-18.185-4.155-6.789-13.883-6.789-18.038 0-3.413 5.576-6.033 11.69-7.705 18.185-6.494 1.672-12.608 4.292-18.184 7.704-6.789 4.155-6.789 13.883 0 18.038 5.576 3.413 11.69 6.033 18.184 7.705 1.672 6.494 4.292 12.607 7.705 18.184 4.155 6.789 13.883 6.789 18.038 0 3.413-5.577 6.033-11.691 7.705-18.184z"
    fill="#ffce71"
  />
  <path
    d="m512 256c0-141.492-114.496-256-256-256-77.466 0-148.385 34.162-196.948 92.416-2.652 3.182-2.223 7.911.958 10.563 3.183 2.652 7.911 2.225 10.563-.958 45.529-54.613 112.186-87.021 185.427-87.021 133.2 0 241 107.788 241 241 0 52.335-16.175 101.46-46.888 142.897-1.049-2.162-2.198-4.276-3.455-6.33-7.088-11.581-23.756-11.557-30.833 0-3.091 5.051-5.558 10.432-7.361 16.045-5.61 1.802-10.991 4.27-16.045 7.361-11.581 7.088-11.557 23.757 0 30.832 2.044 1.251 4.148 2.395 6.3 3.44-41.401 30.627-90.463 46.755-142.718 46.755-133.203 0-241-107.789-241-241 0-46.665 13.254-91.812 38.33-130.562 2.25-3.478 1.256-8.12-2.222-10.371-3.478-2.247-8.121-1.256-10.371 2.223-26.651 41.182-40.737 89.147-40.737 138.71 0 141.494 114.498 256 256 256 29.819 0 58.984-5.042 86.684-14.987 24.425-8.768 47.237-21.185 67.955-36.956 1.463 3.504 3.193 6.9 5.186 10.157 7.089 11.581 23.759 11.557 30.833 0 3.091-5.052 5.559-10.433 7.361-16.045 5.615-1.804 10.996-4.271 16.046-7.362 11.581-7.089 11.557-23.762-.002-30.833-3.249-1.988-6.635-3.715-10.13-5.176 33.902-44.461 52.067-98.337 52.067-154.798zm-49.766 172.769c2.014 1.233 2.016 4.01 0 5.244-5.021 3.073-10.452 5.374-16.141 6.84-7.115 1.833-3.796 7.748-12.231 21.531-1.23 2.013-4.01 2.017-5.243.001-8.419-13.759-5.119-19.67-12.214-21.528-5.689-1.591-10.538-3.405-16.156-6.844-2.015-1.233-2.018-4.011-.001-5.244 13.78-8.432 19.698-5.114 21.531-12.231 1.465-5.687 3.767-11.117 6.839-16.139 1.234-2.015 4.011-2.018 5.245 0 3.411 5.573 5.25 10.457 6.833 16.119 1.818 7.132 7.749 3.813 21.538 12.251z"
  />
  <path
    d="m184 193.5v10c0 4.142 3.358 7.5 7.5 7.5s7.5-3.358 7.5-7.5v-10c0-4.142-3.358-7.5-7.5-7.5s-7.5 3.358-7.5 7.5z"
  />
  <path
    d="m327 203.5v-10c0-4.142-3.358-7.5-7.5-7.5s-7.5 3.358-7.5 7.5v10c0 4.142 3.358 7.5 7.5 7.5s7.5-3.358 7.5-7.5z"
  />
  <path
    d="m256 239c9.687 0 18.623-5.599 22.766-14.265 1.787-3.737.206-8.215-3.531-10.001-3.737-1.789-8.215-.206-10.001 3.531-1.666 3.484-5.291 5.735-9.234 5.735s-7.568-2.251-9.234-5.735c-1.787-3.737-6.266-5.317-10.001-3.531-3.737 1.787-5.318 6.265-3.531 10.001 4.143 8.666 13.079 14.265 22.766 14.265z"
  />
  <path
    d="m403.836 266.5c4.143 0 7.5-3.357 7.5-7.5s-3.357-7.5-7.5-7.5c-28.948 0-52.5 23.552-52.5 52.5s23.552 52.5 52.5 52.5c16.779 0 32.682-8.122 42.538-21.726 2.431-3.354 1.682-8.043-1.673-10.474-3.353-2.432-8.043-1.682-10.474 1.673-7.044 9.722-18.405 15.526-30.392 15.526-20.678 0-37.5-16.822-37.5-37.5s16.823-37.499 37.501-37.499z"
  />
  <path
    d="m161.607 102.506c-3.584-2.073-8.173-.849-10.248 2.734-3.286 5.68-5.023 12.167-5.023 18.76 0 20.678 16.822 37.5 37.5 37.5s37.5-16.822 37.5-37.5c0-21.377-17.939-38.482-39.282-37.458-4.137.196-7.332 3.71-7.135 7.848.197 4.139 3.715 7.352 7.848 7.135 12.855-.603 23.569 9.686 23.569 22.476 0 12.406-10.093 22.5-22.5 22.5s-22.5-10.094-22.5-22.5c0-3.958 1.04-7.848 3.007-11.246 2.074-3.587.849-8.175-2.736-10.249z"
  />
  <path
    d="m156.68 430.91c-18.69 0-36.03-10.471-45.25-27.311-2.01-3.655-6.593-4.961-10.18-2.97-3.63 1.99-4.96 6.55-2.98 10.18 5.72 10.43 14.1 19.21 24.23 25.391 20.501 12.522 45.947 12.467 64.57 2.529h.01c.02-.02.05-.029.06-.04 6.747 0 54.068-35.649 32.55-86.51-10.259-24.259-34.219-41.199-62.19-41.229-4.13 0-7.5 3.369-7.5 7.51 0 4.13 3.37 7.5 7.5 7.5 14.02 0 27.2 5.46 37.12 15.37 33.263 33.329 8.915 89.58-37.94 89.58z"
  />
  <path
    d="m97.5 370.95c-4.13 0-7.5 3.369-7.5 7.51 0 4.13 3.37 7.5 7.5 7.5 4.14 0 7.5-3.37 7.5-7.5 0-.01 0-.01 0-.021-.01-4.129-3.37-7.489-7.5-7.489z"
  />
  <path
    d="m7.213 48.823c3.431 2.1 7.067 3.812 10.853 5.111 1.3 3.784 3.011 7.42 5.111 10.853 5.892 9.627 19.766 9.607 25.647 0 2.099-3.431 3.811-7.066 5.111-10.853 3.786-1.3 7.421-3.012 10.852-5.111 9.627-5.89 9.608-19.768 0-25.646-3.431-2.1-7.067-3.812-10.853-5.111-1.3-3.785-3.012-7.422-5.111-10.853-2.764-4.517-7.558-7.213-12.823-7.213s-10.059 2.696-12.824 7.214c-2.1 3.432-3.811 7.067-5.111 10.852-3.785 1.3-7.421 3.012-10.852 5.111-4.517 2.763-7.213 7.557-7.213 12.823s2.696 10.06 7.213 12.823zm18.74-17.474c2.646-.681 4.713-2.747 5.395-5.394.989-3.844 2.545-7.515 4.682-10.912 2.079 3.396 3.634 7.067 4.624 10.912.681 2.646 2.748 4.713 5.395 5.394 3.842.988 7.513 2.544 10.91 4.68-3.396 2.079-7.067 3.635-10.911 4.625-2.646.681-4.712 2.747-5.393 5.393-.99 3.844-2.545 7.515-4.682 10.912-2.079-3.398-3.635-7.069-4.624-10.911-.681-2.646-2.747-4.713-5.393-5.394-3.844-.99-7.515-2.546-10.912-4.682 3.396-2.079 7.066-3.635 10.909-4.623z"
  />
</svg>
