<svg height="512" viewBox="0 0 512 512" width="512" xmlns="http://www.w3.org/2000/svg">
  <path
    d="m279.863 16.69 32.407 29.308 42.719-9.178c17.861-3.837 35.725 6.477 41.332 23.863l13.411 41.585 41.585 13.411c17.387 5.607 27.701 23.471 23.863 41.332l-9.178 42.719 29.308 32.407c12.254 13.549 12.254 34.177 0 47.726l-29.308 32.407 9.178 42.719c3.837 17.861-6.477 35.725-23.863 41.332l-41.585 13.411-13.411 41.585c-5.607 17.387-23.471 27.701-41.332 23.863l-42.719-9.178-32.407 29.308c-13.549 12.254-34.177 12.254-47.726 0l-32.407-29.308-42.719 9.178c-17.861 3.837-35.725-6.477-41.332-23.863l-13.411-41.585-41.585-13.411c-17.387-5.607-27.701-23.471-23.863-41.332l9.178-42.719-29.308-32.407c-12.254-13.549-12.254-34.177 0-47.726l29.308-32.407-9.178-42.719c-3.837-17.861 6.477-35.725 23.863-41.332l41.585-13.411 13.411-41.585c5.607-17.387 23.471-27.701 41.332-23.863l42.719 9.178 32.407-29.308c13.549-12.253 34.177-12.253 47.726 0z"
    fill="#ffb357"
  />
  <path
    d="m256 443.985c-103.655 0-187.985-84.33-187.985-187.985s84.33-187.985 187.985-187.985 187.985 84.33 187.985 187.985-84.33 187.985-187.985 187.985z"
    fill="#fce3a0"
  />
  <path
    d="m170.015 256c0-85.986 58.032-158.669 136.985-180.952-16.224-4.579-33.331-7.034-51-7.034-103.655 0-187.985 84.33-187.985 187.985s84.33 187.986 187.985 187.986c17.669 0 34.776-2.455 51-7.034-78.953-22.282-136.985-94.965-136.985-180.951z"
    fill="#ffce71"
  />
  <ellipse
    cx="176.831"
    cy="248.263"
    fill="#ff8e9e"
    rx="29.212"
    ry="23.263"
    transform="matrix(1 .003 -.003 1 .779 -.553)"
  />
  <ellipse
    cx="335.169"
    cy="248.759"
    fill="#ff8e9e"
    rx="29.212"
    ry="23.263"
    transform="matrix(-1 -.003 .003 -1 669.558 498.567)"
  />
  <g fill="#313d40">
    <path
      d="m191.5 206c-4.142 0-7.5 3.358-7.5 7.5v10c0 4.142 3.358 7.5 7.5 7.5s7.5-3.358 7.5-7.5v-10c0-4.142-3.358-7.5-7.5-7.5z"
    />
    <path
      d="m319.5 206c-4.142 0-7.5 3.358-7.5 7.5v10c0 4.142 3.358 7.5 7.5 7.5s7.5-3.358 7.5-7.5v-10c0-4.142-3.358-7.5-7.5-7.5z"
    />
    <path
      d="m275.235 234.734c-3.737-1.789-8.215-.206-10.001 3.531-1.666 3.484-5.291 5.735-9.234 5.735s-7.568-2.251-9.234-5.735c-1.787-3.737-6.266-5.317-10.001-3.531-3.737 1.787-5.318 6.265-3.531 10.001 4.143 8.666 13.079 14.265 22.766 14.265s18.623-5.599 22.766-14.265c1.787-3.736.206-8.214-3.531-10.001z"
    />
  </g>
  <path
    d="m199 223.5v-10c0-4.142-3.358-7.5-7.5-7.5s-7.5 3.358-7.5 7.5v10c0 4.142 3.358 7.5 7.5 7.5s7.5-3.358 7.5-7.5z"
  />
  <path
    d="m327 223.5v-10c0-4.142-3.358-7.5-7.5-7.5s-7.5 3.358-7.5 7.5v10c0 4.142 3.358 7.5 7.5 7.5s7.5-3.358 7.5-7.5z"
  />
  <path
    d="m256 259c9.687 0 18.623-5.599 22.766-14.265 1.787-3.737.206-8.215-3.531-10.001-3.738-1.789-8.215-.206-10.001 3.531-1.666 3.484-5.291 5.735-9.234 5.735s-7.568-2.251-9.234-5.735c-1.786-3.737-6.265-5.317-10.001-3.531-3.737 1.787-5.318 6.265-3.531 10.001 4.143 8.666 13.079 14.265 22.766 14.265z"
  />
  <path
    d="m163.957 100.796c3.559-2.119 4.727-6.722 2.607-10.281s-6.723-4.725-10.281-2.607c-28.624 17.042-52.609 41.267-69.363 70.053-17.274 29.681-26.405 63.582-26.405 98.039 0 107.791 87.694 195.485 195.485 195.485s195.485-87.694 195.485-195.485-87.694-195.485-195.485-195.485c-.001 0-.002 0-.004 0-24.758 0-48.904 4.591-71.768 13.646-3.851 1.525-5.736 5.884-4.211 9.735 1.526 3.851 5.885 5.736 9.735 4.211 21.098-8.356 43.387-12.593 66.248-12.592 99.52 0 180.485 80.965 180.485 180.485s-80.965 180.485-180.485 180.485-180.485-80.965-180.485-180.485c0-63.253 33.889-122.724 88.442-155.204z"
  />
  <path
    d="m512 256c0-10.699-3.952-20.96-11.128-28.895l-26.731-29.557c9.167-42.662 9.338-42.012 9.338-48.034 0-18.749-12-35.214-29.86-40.974l-37.929-12.23-12.231-37.929c-5.76-17.86-22.227-29.859-40.975-29.859-6.096 0-5.764.256-48.034 9.337l-29.556-26.731c-7.934-7.176-18.195-11.128-28.894-11.128-10.422 0-20.75 3.762-28.895 11.128l-29.557 26.731c-42.663-9.166-42.015-9.337-48.034-9.337-18.749 0-35.215 12-40.975 29.859l-12.229 37.929-37.929 12.231c-17.86 5.76-29.859 22.227-29.859 40.975 0 6.097.257 5.767 9.337 48.034l-26.731 29.556c-7.176 7.934-11.128 18.195-11.128 28.894s3.952 20.96 11.128 28.895l26.731 29.557c-9.166 42.663-9.337 42.015-9.337 48.034 0 18.749 12 35.215 29.859 40.975l37.929 12.229 12.231 37.929c5.76 17.86 22.227 29.859 40.975 29.859 6.097 0 5.767-.257 48.034-9.337l29.556 26.731c7.934 7.176 18.195 11.128 28.894 11.128s20.96-3.952 28.895-11.128l29.557-26.731c42.64 9.161 42.009 9.337 48.035 9.337 18.748 0 35.214-12 40.974-29.86l1.914-5.937c1.271-3.942-.894-8.168-4.836-9.439-3.945-1.271-8.168.895-9.44 4.837l-1.913 5.936c-3.755 11.642-14.484 19.464-26.698 19.464-4.052 0-2.051.2-48.641-9.81-2.358-.506-4.816.152-6.606 1.77l-32.406 29.308c-5.174 4.677-11.862 7.253-18.835 7.253s-13.661-2.576-18.832-7.253l-32.406-29.308c-1.789-1.618-4.248-2.276-6.606-1.77-46.815 10.058-44.66 9.81-48.64 9.81-12.214 0-22.944-7.822-26.698-19.463l-13.411-41.585c-.741-2.296-2.54-4.095-4.836-4.836l-41.585-13.411c-11.642-3.754-19.463-14.483-19.463-26.698 0-4.052-.2-2.05 9.81-48.64.507-2.358-.152-4.817-1.77-6.606l-29.308-32.406c-4.679-5.173-7.255-11.861-7.255-18.834s2.576-13.661 7.253-18.832l29.308-32.406c1.618-1.789 2.277-4.248 1.77-6.606-10.058-46.815-9.81-44.66-9.81-48.64 0-12.214 7.822-22.944 19.463-26.698l41.585-13.411c2.296-.741 4.095-2.54 4.836-4.836l13.411-41.585c3.754-11.642 14.483-19.463 26.698-19.463 4.052 0 2.05-.2 48.64 9.81 2.358.506 4.816-.151 6.606-1.77l32.407-29.308c5.294-4.79 11.997-7.255 18.833-7.255 6.973 0 13.661 2.576 18.832 7.253l32.406 29.308c1.789 1.618 4.249 2.277 6.606 1.77 46.816-10.058 44.661-9.81 48.64-9.81 12.215 0 22.944 7.822 26.699 19.463l13.41 41.585c.74 2.296 2.54 4.096 4.836 4.836l41.585 13.411c11.642 3.754 19.464 14.483 19.464 26.698 0 4.043.207 2.014-9.811 48.64-.507 2.359.152 4.817 1.771 6.606l29.309 32.406c4.677 5.173 7.253 11.861 7.253 18.834s-2.576 13.661-7.253 18.832l-29.309 32.406c-1.618 1.789-2.277 4.248-1.771 6.606l9.179 42.718c.419 1.952.632 3.944.632 5.921 0 12.214-7.822 22.943-19.464 26.698l-41.585 13.411c-2.296.741-4.096 2.541-4.837 4.837l-2.288 7.097c-1.271 3.942.895 8.168 4.837 9.439 3.947 1.27 8.168-.894 9.439-4.837l1.109-3.439 37.928-12.231c17.86-5.76 29.86-22.227 29.86-40.974 0-3.034-.325-6.086-.966-9.072l-8.372-38.962 26.731-29.556c7.178-7.934 11.13-18.195 11.13-28.894z"
  />
</svg>
